<?xml version="1.0" encoding="utf-8"?>
<!-- Generator: Adobe Illustrator 24.3.0, SVG Export Plug-In . SVG Version: 6.00 Build 0)  -->
<svg version="1.1" id="Layer_1" xmlns="http://www.w3.org/2000/svg" xmlns:xlink="http://www.w3.org/1999/xlink" x="0px" y="0px"
	 viewBox="0 0 1000 1000" style="enable-background:new 0 0 1000 1000;" xml:space="preserve">
<style type="text/css">
	.st0{fill:#0084CA;}
	.st1{fill:#76CB00;}
	.st2{fill:#FF4657;}
	.st3{fill:#FFFFFF;}
</style>
<g>
	<g>
		<path d="M362.2,539.5v-13.2c0-0.7-0.4-1.1-1.1-1.1h-37.5c-0.7,0-1.1-0.4-1.1-1.1v-16.5c0-0.5,0.1-0.9,0.2-1.2
			c0.1-0.3,0.4-0.6,0.6-1l32.3-40.8c0.6-0.7,1.1-1.1,1.7-1.3c0.6-0.1,1.2-0.2,1.9-0.2h11.5c1.9,0,3.7,0.2,5.3,0.6
			c1.6,0.4,2.4,1,2.4,1.9v45c0,0.7,0.4,1.1,1.1,1.1h4.5c0.7,0,1.1,0.4,1.1,1.1v11.3c0,0.7-0.2,1.1-0.6,1.1h-5
			c-0.7,0-1.1,0.4-1.1,1.1v13.2c0,0.7-0.4,1.1-1.1,1.1h-14.1C362.6,540.6,362.2,540.2,362.2,539.5z M362.2,482.4
			c0-0.5-0.1-0.8-0.3-0.8c-0.2,0-0.5,0.2-0.8,0.6c-0.3,0.4-0.5,0.7-0.8,0.9l-19.5,26.6c-0.2,0.3-0.4,0.5-0.5,0.7
			c-0.1,0.2-0.2,0.4-0.2,0.8c0,0.2,0.1,0.3,0.4,0.4c0.3,0,0.6,0.1,0.9,0.1h19.6c0.7,0,1.1-0.4,1.1-1.1V482.4z"/>
		<path d="M392.8,539.5v-75.2c0-0.7,0.4-1.1,1.1-1.1h36.8c4.1,0,7.6,0.8,10.6,2.4c3,1.6,5.4,3.6,7.4,6.1c1.9,2.5,3.4,5.4,4.3,8.6
			c0.9,3.2,1.3,6.5,1.3,9.8v25.9c0,2.8-0.5,5.7-1.3,8.6c-0.9,2.9-2.3,5.6-4.3,7.9c-1.9,2.4-4.4,4.3-7.3,5.8
			c-2.9,1.5-6.5,2.2-10.6,2.2h-36.9C393.1,540.6,392.8,540.2,392.8,539.5z M408.4,525.5c0,0.7,0.4,1.1,1.1,1.1h19.3
			c1.1,0,2.3-0.3,3.5-0.9c1.2-0.6,2.2-1.4,3.2-2.4c0.9-1,1.7-2,2.3-3.2c0.6-1.2,0.9-2.4,0.9-3.6v-28.7c0-1.3-0.3-2.6-1-3.8
			c-0.6-1.3-1.5-2.4-2.5-3.3c-1-1-2.1-1.8-3.4-2.4c-1.3-0.6-2.5-0.9-3.8-0.9h-18.4c-0.7,0-1.1,0.4-1.1,1.1V525.5z"/>
		<path d="M462.5,490.9c0-1.8,0.7-3.3,2.1-4.6c1.4-1.3,2.9-1.9,4.5-1.9h22.3c1.9,0,3.6,0.4,5.2,1.3c1.6,0.9,2.7,1.7,3.5,2.4
			c0.4,0.4,0.8,0.8,1.2,1.2c0.5,0.5,0.8,0.7,0.9,0.7c0.1,0,0.3-0.1,0.6-0.4c0.3-0.3,0.6-0.6,0.9-1c0.4-0.4,0.8-0.9,1.3-1.4
			c0.5-0.5,1.2-0.9,2-1.3c1.4-0.8,2.9-1.2,4.4-1.3c1.5-0.1,2.4-0.2,2.9-0.2h7.7c2.9,0,5.6,0.6,8.1,1.7c2.4,1.1,4.5,2.5,6.3,4.3
			c1.8,1.7,3.1,3.7,4.1,5.8c1,2.1,1.5,4.2,1.5,6.2v37.2c0,0.7-0.4,1.1-1.1,1.1H530c-0.8,0-1.2-0.4-1.2-1.1v-35.8
			c0-1.1-0.3-2.2-0.8-3.1c-0.5-0.9-1.1-1.7-1.9-2.3s-1.6-1.1-2.5-1.5c-0.9-0.3-1.7-0.5-2.5-0.5H514c-1.3,0-2.6,0.5-3.8,1.5
			c-1.3,1-1.9,2.4-1.9,4.3v37.4c0,0.7-0.4,1.1-1.1,1.1h-11c-0.7,0-1.1-0.4-1.1-1.1v-37.4c0-1.4-0.7-2.8-2.1-3.9
			c-1.4-1.2-2.9-1.8-4.6-1.8h-9.9c-0.8,0-1.5,0.3-2,1c-0.5,0.6-0.8,1.4-0.8,2.3v39.9c0,0.7-0.4,1.1-1.1,1.1h-11
			c-0.7,0-1.1-0.4-1.1-1.1V490.9z"/>
		<path d="M604.3,518.8c0,4.3-0.4,7.9-1.1,10.7s-1.9,5-3.5,6.7c-1.5,1.7-3.5,2.8-5.9,3.5c-2.4,0.6-5.2,1-8.5,1h-19.2
			c-3.3,0-6-0.6-8.2-1.8c-2.2-1.2-3.9-2.7-5.2-4.6c-1.3-1.9-2.2-4.1-2.7-6.5c-0.5-2.4-0.8-4.9-0.8-7.4v-19c0-2.6,0.4-4.9,1.3-7
			c0.9-2.1,2.1-3.9,3.6-5.3c1.5-1.5,3.3-2.6,5.3-3.4c2-0.8,4.2-1.2,6.5-1.2h21.8c1.9,0,3.9,0.4,5.9,1.1c2,0.7,3.7,1.8,5.3,3.2
			c1.5,1.4,2.8,3.1,3.8,5.1c1,2,1.5,4.3,1.5,6.8V518.8z M591,502.9c0-0.9-0.3-1.6-0.8-2.3c-0.5-0.7-1.2-1.3-2.1-1.7
			c-0.9-0.5-1.8-0.8-2.9-1c-1.1-0.2-2.2-0.3-3.2-0.3h-11.8c-0.9,0-1.9,0.1-2.8,0.3c-0.9,0.2-1.8,0.5-2.5,0.9s-1.4,1-1.9,1.7
			c-0.5,0.7-0.8,1.6-0.8,2.6v17.3c0,1.4,0.3,2.6,0.9,3.6c0.6,0.9,1.4,1.7,2.3,2.2c0.9,0.5,1.9,0.9,3,1.1c1.1,0.2,2.1,0.3,3,0.3h9.9
			c2.6,0,4.8-0.6,6.7-1.8c1.9-1.2,2.9-2.8,2.9-4.6v-8.6V502.9z"/>
		<path d="M650.2,483.3v-19c0-0.7,0.4-1.1,1.1-1.1h11c0.7,0,1.1,0.4,1.1,1.1v75.2c0,0.7-0.4,1.1-1.1,1.1h-33.5
			c-3.5,0-6.4-0.9-8.8-2.6c-2.4-1.8-4.5-4-6-6.7c-1.6-2.7-2.8-5.7-3.5-9c-0.8-3.2-1.1-6.4-1.1-9.4c0-4.2,0.4-8.1,1.1-11.6
			c0.8-3.5,1.9-6.5,3.5-9c1.6-2.5,3.6-4.4,6-5.8c2.4-1.4,5.4-2,8.8-2h20.4C649.9,484.4,650.2,484,650.2,483.3z M650.2,498.6
			c0-0.7-0.4-1.1-1.1-1.1h-11.8c-2.2,0-4.3,0.2-6.1,0.6c-1.8,0.4-3.4,1.2-4.7,2.3c-1.3,1.1-2.4,2.7-3.1,4.7c-0.7,2-1.1,4.6-1.1,7.8
			c0,2.9,0.4,5.4,1.1,7.2c0.7,1.9,1.7,3.3,3,4.4c1.3,1.1,2.9,1.8,4.7,2.3c1.8,0.4,3.9,0.6,6.2,0.6h11.8c0.7,0,1.1-0.4,1.1-1.1V498.6
			z"/>
		<path d="M682.9,519.9c0,1.1,0.3,2.1,0.9,3c0.6,0.9,1.3,1.7,2.3,2.4c1,0.7,2.1,1.2,3.5,1.6c1.4,0.4,2.8,0.6,4.3,0.6h25.7
			c0.7,0,1.1,0.4,1.1,1.1v11c0,0.7-0.4,1.1-1.1,1.1h-18.2c-6,0-11.1-0.5-15.2-1.5c-4.1-1-7.3-2.6-9.8-4.8c-2.5-2.2-4.2-5-5.3-8.4
			c-1-3.4-1.6-7.4-1.6-12.2c0-5.8,0.9-10.5,2.6-14.3c1.8-3.8,4.1-6.8,6.9-9c2.8-2.2,6-3.8,9.6-4.7c3.6-0.9,7.1-1.3,10.7-1.3
			c4.5,0,8.3,0.5,11.5,1.6c3.2,1,5.9,2.5,8,4.4c2.1,1.9,3.6,4.2,4.6,7c1,2.7,1.5,5.8,1.5,9.2v11.2c0,0.7-0.4,1.1-1.1,1.1H684
			C683.3,518.8,682.9,519.1,682.9,519.9z M711.7,506.2c0.7,0,1.1-0.4,1.1-1.1c0-2.7-1.3-4.9-3.8-6.5c-2.5-1.6-6-2.4-10.6-2.4
			c-1.4,0-3,0.2-4.8,0.6c-1.8,0.4-3.5,1-5.1,1.8c-1.6,0.8-3,1.7-4,2.8c-1.1,1.1-1.6,2.4-1.6,3.7c0,0.7,0.4,1.1,1.1,1.1H711.7z"/>
		<path d="M734,463.2h11c0.7,0,1.1,0.4,1.1,1.1v64v0.2v11c0,0.7-0.4,1.1-1.1,1.1h-11c-0.7,0-1.1-0.4-1.1-1.1v-11v-0.2v-64
			C733,463.6,733.3,463.2,734,463.2z"/>
		<path d="M756.2,463.2h11c0.7,0,1.1,0.4,1.1,1.1v64v0.2v11c0,0.7-0.4,1.1-1.1,1.1h-11c-0.7,0-1.1-0.4-1.1-1.1v-11v-0.2v-64
			C755.2,463.6,755.5,463.2,756.2,463.2z"/>
		<path d="M788,519.9c0,1.1,0.3,2.1,0.9,3c0.6,0.9,1.3,1.7,2.3,2.4c1,0.7,2.1,1.2,3.5,1.6c1.4,0.4,2.8,0.6,4.3,0.6h25.7
			c0.7,0,1.1,0.4,1.1,1.1v11c0,0.7-0.4,1.1-1.1,1.1h-18.2c-6,0-11.1-0.5-15.2-1.5c-4.1-1-7.3-2.6-9.8-4.8c-2.5-2.2-4.2-5-5.3-8.4
			c-1-3.4-1.6-7.4-1.6-12.2c0-5.8,0.9-10.5,2.6-14.3c1.8-3.8,4.1-6.8,6.9-9c2.8-2.2,6-3.8,9.6-4.7c3.6-0.9,7.1-1.3,10.7-1.3
			c4.5,0,8.3,0.5,11.5,1.6c3.2,1,5.9,2.5,8,4.4c2.1,1.9,3.6,4.2,4.6,7c1,2.7,1.5,5.8,1.5,9.2v11.2c0,0.7-0.4,1.1-1.1,1.1H789
			C788.3,518.8,788,519.1,788,519.9z M816.8,506.2c0.7,0,1.1-0.4,1.1-1.1c0-2.7-1.3-4.9-3.8-6.5c-2.5-1.6-6-2.4-10.6-2.4
			c-1.4,0-3,0.2-4.8,0.6c-1.8,0.4-3.5,1-5.1,1.8c-1.6,0.8-3,1.7-4,2.8c-1.1,1.1-1.6,2.4-1.6,3.7c0,0.7,0.4,1.1,1.1,1.1H816.8z"/>
		<path d="M866.6,484.4c0.7,0,1.1,0.4,1.1,1.1v11c0,0.7-0.4,1.1-1.1,1.1h-10.4c-0.6,0-1.2,0.2-1.7,0.5c-0.5,0.4-1,0.8-1.3,1.2
			c-0.4,0.5-0.7,1-0.9,1.5c-0.2,0.5-0.3,1-0.3,1.5v37.2c0,0.7-0.4,1.1-1.1,1.1h-12.1c-0.7,0-1.1-0.4-1.1-1.1v-41
			c0-1.9,0.4-3.7,1.1-5.4c0.8-1.7,1.8-3.2,3.1-4.5s2.8-2.3,4.5-3.1c1.7-0.8,3.6-1.1,5.5-1.1H866.6z"/>
	</g>
	<g>
		<g>
			<g>
				<path class="st0" d="M238.9,565.2l-106.5,0l62.3-60.1l106.5,0L238.9,565.2z M149.6,558.2l86.4,0l47.8-46.1l-86.4,0L149.6,558.2z
					"/>
			</g>
			<g>
				<g>
					
						<rect x="164" y="531.2" transform="matrix(0.7199 -0.694 0.694 0.7199 -314.4338 290.0933)" class="st0" width="76.5" height="7"/>
				</g>
				<g>
					
						<rect x="194.2" y="532.3" transform="matrix(0.7199 -0.694 0.694 0.7199 -306.7909 311.399)" class="st0" width="76.5" height="7"/>
				</g>
			</g>
			<g>
				<g>
					<rect x="178.7" y="523" class="st0" width="96.5" height="7"/>
				</g>
				<g>
					<rect x="159.1" y="540.2" class="st0" width="96.5" height="7"/>
				</g>
			</g>
		</g>
		<g>
			<g>
				<path class="st1" d="M243.5,530l-106.5,0l62.3-60.1l106.5,0L243.5,530z M154.3,523l86.4,0l47.8-46.1l-86.4,0L154.3,523z"/>
			</g>
			<g>
				<g>
					
						<rect x="167.2" y="496" transform="matrix(0.7199 -0.694 0.694 0.7199 -289.1425 282.489)" class="st1" width="76.5" height="7"/>
				</g>
				<g>
					
						<rect x="199.2" y="497.2" transform="matrix(0.7199 -0.694 0.694 0.7199 -281.0044 305.0247)" class="st1" width="76.5" height="7"/>
				</g>
			</g>
			<g>
				<g>
					<rect x="182.3" y="488.2" class="st1" width="96.5" height="7"/>
				</g>
				<g>
					<rect x="162.8" y="505.2" class="st1" width="96.5" height="7"/>
				</g>
			</g>
		</g>
		<g>
			<g>
				<path class="st2" d="M248.1,494.9l-106.5,0l62.3-60.1l106.5,0L248.1,494.9z M158.8,487.9l86.4,0l47.8-46.1l-86.4,0L158.8,487.9z
					"/>
			</g>
			<g>
				<g>
					
						<rect x="172" y="460.7" transform="matrix(0.7199 -0.694 0.694 0.7199 -263.2691 275.9381)" class="st2" width="76.5" height="7"/>
				</g>
				<g>
					
						<rect x="202.6" y="461.9" transform="matrix(0.7199 -0.694 0.694 0.7199 -255.5584 297.5024)" class="st2" width="76.5" height="7"/>
				</g>
			</g>
			<g>
				<g>
					<rect x="187.5" y="452.9" class="st2" width="96.5" height="7"/>
				</g>
				<g>
					<rect x="167.9" y="469.9" class="st2" width="96.5" height="7"/>
				</g>
			</g>
		</g>
	</g>
</g>
</svg>
