<?xml version="1.0" encoding="utf-8"?>
<!-- Generator: Adobe Illustrator 24.3.0, SVG Export Plug-In . SVG Version: 6.00 Build 0)  -->
<svg version="1.1" id="Layer_1" xmlns="http://www.w3.org/2000/svg" xmlns:xlink="http://www.w3.org/1999/xlink" x="0px" y="0px"
	 viewBox="0 0 1000 1000" style="enable-background:new 0 0 1000 1000;" xml:space="preserve">
<style type="text/css">
	.st0{fill:#0084CA;}
	.st1{fill:#76CB00;}
	.st2{fill:#FF4657;}
	.st3{fill:#FFFFFF;}
</style>
<g>
	<g>
		<g>
			<path class="st0" d="M545.3,668.6l-275.6,0l161.2-155.4l275.6,0L545.3,668.6z M314.4,650.5l223.6,0l123.7-119.3l-223.6,0
				L314.4,650.5z"/>
		</g>
		<g>
			<g>
				
					<rect x="351.6" y="580.6" transform="matrix(0.7199 -0.694 0.694 0.7199 -283.0685 477.8211)" class="st0" width="197.9" height="18.1"/>
			</g>
			<g>
				
					<rect x="429.8" y="583.7" transform="matrix(0.7199 -0.694 0.694 0.7199 -263.2925 532.9493)" class="st0" width="197.9" height="18.1"/>
			</g>
		</g>
		<g>
			<g>
				<rect x="389.6" y="559.5" class="st0" width="249.6" height="18.1"/>
			</g>
			<g>
				<rect x="339" y="604" class="st0" width="249.6" height="18.1"/>
			</g>
		</g>
	</g>
	<g>
		<g>
			<path class="st1" d="M557.4,577.5l-275.6,0L443,422l275.6,0L557.4,577.5z M326.6,559.4l223.6,0l123.7-119.3l-223.6,0L326.6,559.4
				z"/>
		</g>
		<g>
			<g>
				
					<rect x="359.9" y="489.7" transform="matrix(0.7199 -0.694 0.694 0.7199 -217.6275 458.1451)" class="st1" width="197.9" height="18.1"/>
			</g>
			<g>
				
					<rect x="442.7" y="492.8" transform="matrix(0.7199 -0.694 0.694 0.7199 -196.5703 516.4561)" class="st1" width="197.9" height="18.1"/>
			</g>
		</g>
		<g>
			<g>
				<rect x="399.1" y="469.4" class="st1" width="249.6" height="18.1"/>
			</g>
			<g>
				<rect x="348.5" y="513.4" class="st1" width="249.6" height="18.1"/>
			</g>
		</g>
	</g>
	<g>
		<g>
			<path class="st2" d="M569.1,486.8l-275.6,0l161.2-155.4l275.6,0L569.1,486.8z M338.3,468.7l223.6,0l123.7-119.3l-223.6,0
				L338.3,468.7z"/>
		</g>
		<g>
			<g>
				
					<rect x="372.4" y="398.3" transform="matrix(0.7199 -0.694 0.694 0.7199 -150.6807 441.1949)" class="st2" width="197.9" height="18.1"/>
			</g>
			<g>
				
					<rect x="451.5" y="401.4" transform="matrix(0.7199 -0.694 0.694 0.7199 -130.7293 496.9922)" class="st2" width="197.9" height="18.1"/>
			</g>
		</g>
		<g>
			<g>
				<rect x="412.4" y="378.1" class="st2" width="249.6" height="18.1"/>
			</g>
			<g>
				<rect x="361.8" y="422" class="st2" width="249.6" height="18.1"/>
			</g>
		</g>
	</g>
</g>
</svg>
